<?xml version="1.0" encoding="UTF-8" standalone="no"?>
<!-- Created with Inkscape (http://www.inkscape.org/) -->

<svg
   width="210mm"
   height="297mm"
   viewBox="0 0 210 297"
   version="1.1"
   id="svg5"
   xml:space="preserve"
   inkscape:version="1.2.1 (9c6d41e410, 2022-07-14)"
   sodipodi:docname="up-arrow_optimizado.svg"
   xmlns:inkscape="http://www.inkscape.org/namespaces/inkscape"
   xmlns:sodipodi="http://sodipodi.sourceforge.net/DTD/sodipodi-0.dtd"
   xmlns="http://www.w3.org/2000/svg"
   xmlns:svg="http://www.w3.org/2000/svg"><sodipodi:namedview
     id="namedview7"
     pagecolor="#ffffff"
     bordercolor="#000000"
     borderopacity="0.25"
     inkscape:showpageshadow="2"
     inkscape:pageopacity="0.0"
     inkscape:pagecheckerboard="0"
     inkscape:deskcolor="#d1d1d1"
     inkscape:document-units="mm"
     showgrid="false"
     inkscape:zoom="3.7415825"
     inkscape:cx="327.66884"
     inkscape:cy="745.40653"
     inkscape:window-width="1366"
     inkscape:window-height="705"
     inkscape:window-x="-8"
     inkscape:window-y="295"
     inkscape:window-maximized="1"
     inkscape:current-layer="layer1" /><defs
     id="defs2" /><g
     inkscape:label="Capa 1"
     inkscape:groupmode="layer"
     id="layer1"><path
       id="rect408"
       style="fill:#624d8b;stroke:#545454;stroke-width:0"
       transform="matrix(0.8881006,-0.45964913,0.43738553,0.8992741,0,0)"
       d="m -11.016929,213.44212 h 8.5132043 c 0.466667,0 0.8423592,0.3757 0.8423592,0.84236 0,0.46667 -0.3756922,0.84236 -0.8423592,0.84236 h -8.5132043 c -0.466667,0 -0.842359,-0.37569 -0.842359,-0.84236 0,-0.46666 0.375692,-0.84236 0.842359,-0.84236 z" /><path
       id="rect408-4"
       style="fill:#624d8b;stroke:#545454;stroke-width:0"
       transform="matrix(-0.8881006,-0.45964913,-0.43738553,0.8992741,0,0)"
       d="m -175.88126,129.1745 h 8.51321 c 0.46666,0 0.84236,0.37569 0.84236,0.84236 0,0.46667 -0.3757,0.84236 -0.84236,0.84236 h -8.51321 c -0.46667,0 -0.84236,-0.37569 -0.84236,-0.84236 0,-0.46667 0.37569,-0.84236 0.84236,-0.84236 z" /></g></svg>
