<svg><defs
     id="defs2" /><g
     id="layer1"><path
       id="rect408"
       style="fill:#624d8b;stroke:#545454;stroke-width:0"
       transform="matrix(0.8881006,-0.45964913,0.43738553,0.8992741,0,0)"
       d="m -11.016929,213.44212 h 8.5132043 c 0.466667,0 0.8423592,0.3757 0.8423592,0.84236 0,0.46667 -0.3756922,0.84236 -0.8423592,0.84236 h -8.5132043 c -0.466667,0 -0.842359,-0.37569 -0.842359,-0.84236 0,-0.46666 0.375692,-0.84236 0.842359,-0.84236 z" /><path
       id="rect408-4"
       style="fill:#624d8b;stroke:#545454;stroke-width:0"
       transform="matrix(-0.8881006,-0.45964913,-0.43738553,0.8992741,0,0)"
       d="m -175.88126,129.1745 h 8.51321 c 0.46666,0 0.84236,0.37569 0.84236,0.84236 0,0.46667 -0.3757,0.84236 -0.84236,0.84236 h -8.51321 c -0.46667,0 -0.84236,-0.37569 -0.84236,-0.84236 0,-0.46667 0.37569,-0.84236 0.84236,-0.84236 z" /></g></svg>
